<svg width="48" height="32" viewBox="0 0 48 32" fill="none" xmlns="http://www.w3.org/2000/svg">
<path d="M47.58 19C47.4572 18.7498 47.2834 18.5281 47.0699 18.349C46.8564 18.1699 46.6077 18.0374 46.34 17.96C45.4188 17.7169 44.4838 17.5299 43.54 17.4C43.292 17.3632 43.0393 17.421 42.8319 17.5617C42.6244 17.7025 42.4775 17.916 42.42 18.16C41.8414 20.73 40.7533 23.1579 39.22 25.3C37.4407 27.6615 35.1679 29.6067 32.56 31C32.4623 31.0573 32.3859 31.145 32.3426 31.2497C32.2993 31.3544 32.2914 31.4704 32.32 31.58C32.3563 31.6907 32.4301 31.7853 32.5287 31.8473C32.6273 31.9094 32.7445 31.9351 32.86 31.92C34.7422 31.7669 36.5832 31.2864 38.3 30.5C42.3921 28.3121 45.6525 24.841 47.58 20.62C47.693 20.3649 47.7514 20.089 47.7514 19.81C47.7514 19.531 47.693 19.2551 47.58 19Z" fill="black"/>
<path d="M9.7 30.54C11.4168 31.3264 13.2578 31.8069 15.14 31.96C15.2555 31.9751 15.3727 31.9494 15.4713 31.8873C15.5699 31.8253 15.6437 31.7307 15.68 31.62C15.7187 31.5049 15.7159 31.3799 15.672 31.2666C15.6282 31.1534 15.5461 31.0591 15.44 31C12.8321 29.6067 10.5593 27.6615 8.78 25.3C7.2515 23.1698 6.16358 20.756 5.58 18.2C5.52255 17.956 5.37555 17.7425 5.16812 17.6017C4.96069 17.461 4.70797 17.4032 4.46 17.44C3.5162 17.5699 2.58115 17.7569 1.66 18C1.39764 18.0843 1.15553 18.2219 0.948854 18.4041C0.742177 18.5864 0.575393 18.8094 0.458965 19.0591C0.342537 19.3089 0.278976 19.58 0.272271 19.8555C0.265566 20.131 0.315861 20.4049 0.42 20.66C2.34753 24.881 5.6079 28.3521 9.7 30.54Z" fill="black"/>
<path d="M34.1 15.5C33.9747 19.8783 32.6537 24.1389 30.28 27.82C30.2118 27.9051 30.1747 28.0109 30.1747 28.12C30.1747 28.2291 30.2118 28.3349 30.28 28.42C30.3635 28.4918 30.4699 28.5313 30.58 28.5313C30.6901 28.5313 30.7965 28.4918 30.88 28.42C33.1732 27.2249 35.1742 25.5381 36.74 23.48C39.2727 19.5885 40.447 14.9686 40.08 10.34C40.0679 10.077 39.9969 9.8201 39.8722 9.58819C39.7476 9.35629 39.5726 9.15528 39.36 9C39.1369 8.83283 38.8793 8.7174 38.606 8.66205C38.3328 8.60671 38.0506 8.61284 37.78 8.68C36.5494 8.99854 35.3457 9.41314 34.18 9.92C33.9726 10.0042 33.8011 10.1582 33.6952 10.3554C33.5893 10.5526 33.5556 10.7806 33.6 11C33.938 12.476 34.1058 13.9858 34.1 15.5Z" fill="black"/>
<path d="M17.06 28.52C17.1435 28.5918 17.2499 28.6313 17.36 28.6313C17.4701 28.6313 17.5765 28.5918 17.66 28.52C17.7282 28.4349 17.7653 28.3291 17.7653 28.22C17.7653 28.1109 17.7282 28.0051 17.66 27.92C15.3252 24.1935 14.0591 19.8971 14 15.5C13.9614 13.9897 14.0956 12.4798 14.4 11C14.4603 10.7719 14.4345 10.5296 14.3275 10.3193C14.2205 10.1091 14.0399 9.94555 13.82 9.86C12.6543 9.35314 11.4506 8.93854 10.22 8.62C9.94499 8.56112 9.66027 8.5647 9.38682 8.63046C9.11337 8.69623 8.85817 8.82251 8.64 9C8.40575 9.15691 8.21263 9.3678 8.07689 9.61491C7.94115 9.86203 7.86677 10.1381 7.86 10.42C7.48848 15.0552 8.663 19.6829 11.2 23.58C12.7658 25.6381 14.7668 27.3249 17.06 28.52Z" fill="black"/>
<path d="M24 30.56C24.2727 30.5519 24.5313 30.437 24.72 30.24C24.98 29.98 31.1 23.58 31.1 15.5C30.8164 10.4193 28.8617 5.57482 25.54 1.72C25.3523 1.49352 25.117 1.31122 24.8508 1.18609C24.5846 1.06096 24.2941 0.996086 24 0.996086C23.7059 0.996086 23.4154 1.06096 23.1492 1.18609C22.883 1.31122 22.6477 1.49352 22.46 1.72C19.1432 5.58567 17.1896 10.4347 16.9 15.52C16.9 23.52 23.02 30 23.28 30.26C23.3723 30.3576 23.4841 30.4347 23.6082 30.4864C23.7322 30.5381 23.8657 30.5632 24 30.56Z" fill="black"/>
</svg>
